PathFileType        4      (X/Y/Z)      C:\Users\pc\Desktop\IMUTRC\Sujet_05\Sujet_05_velo_60.trc         
DataRate	CameraRate	NumFrames	NumMarkers	Units	OrigDataRate	OrigDataStartFrame	OrigNumFrames
60.0	60.0	4	64	mm	60.0	846	966
Frame#	Time	pHipOrigin			pRightASI			pLeftASI			pRightCSI			pLeftCSI			pRightIschialTub			pLeftIschialTub			pSacrum			pL5SpinalProcess			pL3SpinalProcess			pT12SpinalProcess			pIJ			pT4SpinalProcess			pT8SpinalProcess			pPX			pC7SpinalProcess			pTopOfHead			pRightAuricularis			pLeftAuricularis			pBackOfHead			pRightAcromion			pLeftAcromion			pRightArmLatEpicondyle			pRightArmMedEpicondyle			pLeftArmLatEpicondyle			pLeftArmMedEpicondyle			pRightUlnarStyloid			pRightRadialStyloid			pRightOlecranon			pLeftUlnarStyloid			pLeftRadialStyloid			pLeftOlecranon			pRightTopOfHand			pRightPinky			pRightBallHand			pLeftTopOfHand			pLeftPinky			pLeftBallHand			pRightGreaterTrochanter			pRightKneeLatEpicondyle			pRightKneeMedEpicondyle			pRightPatella			pLeftGreaterTrochanter			pLeftKneeLatEpicondyle			pLeftKneeMedEpicondyle			pLeftPatella			pRightTibialTub			pRightLatMalleolus			pRightMedMalleolus			pLeftTibialTub			pLeftLatMalleolus			pLeftMedMalleolus			pRightHeelFoot			pRightFirstMetatarsal			pRightFifthMetatarsal			pRightPivotFoot			pRightHeelCenter			pRightToe			pLeftHeelFoot			pLeftFirstMetatarsal			pLeftFifthMetatarsal			pLeftPivotFoot			pLeftHeelCenter			pLeftToe			
		X1	Y1	Z1	X2	Y2	Z2	X3	Y3	Z3	X4	Y4	Z4	X5	Y5	Z5	X6	Y6	Z6	X7	Y7	Z7	X8	Y8	Z8	X9	Y9	Z9	X10	Y10	Z10	X11	Y11	Z11	X12	Y12	Z12	X13	Y13	Z13	X14	Y14	Z14	X15	Y15	Z15	X16	Y16	Z16	X17	Y17	Z17	X18	Y18	Z18	X19	Y19	Z19	X20	Y20	Z20	X21	Y21	Z21	X22	Y22	Z22	X23	Y23	Z23	X24	Y24	Z24	X25	Y25	Z25	X26	Y26	Z26	X27	Y27	Z27	X28	Y28	Z28	X29	Y29	Z29	X30	Y30	Z30	X31	Y31	Z31	X32	Y32	Z32	X33	Y33	Z33	X34	Y34	Z34	X35	Y35	Z35	X36	Y36	Z36	X37	Y37	Z37	X38	Y38	Z38	X39	Y39	Z39	X40	Y40	Z40	X41	Y41	Z41	X42	Y42	Z42	X43	Y43	Z43	X44	Y44	Z44	X45	Y45	Z45	X46	Y46	Z46	X47	Y47	Z47	X48	Y48	Z48	X49	Y49	Z49	X50	Y50	Z50	X51	Y51	Z51	X52	Y52	Z52	X53	Y53	Z53	X54	Y54	Z54	X55	Y55	Z55	X56	Y56	Z56	X57	Y57	Z57	X58	Y58	Z58	X59	Y59	Z59	X60	Y60	Z60	X61	Y61	Z61	X62	Y62	Z62	X63	Y63	Z63	X64	Y64	Z64	
846	14.083	0.0	1249.96063	7.653801422948546E-14	66.70044000000001	1344.02773	121.61930000000008	54.82608999999999	1343.10005	-128.0203099999999	23.099320000000006	1405.62591	102.41625000000009	13.265869999999993	1404.79099	-105.29206999999991	-48.51784	1196.34053	54.547780000000074	-53.52733	1195.96946	-49.25998999999993	-62.61863	1268.69984	2.8758200000000818	-27.92327	1370.28117	0.18554000000008564	32.37615	1474.92386	-0.7421499999999117	96.29354	1565.28022	-0.92767999999991	357.90026	1575.2992	4.0818100000000745	253.07204	1689.49703	1.2059900000000878	174.21894	1641.90687	-0.37106999999991014	252.8865	1505.81572	2.133670000000077	306.69214	1719.92505	2.226440000000087	590.84157	1709.07115	-23.47038999999993	495.29017	1702.29906	62.711400000000076	476.73651	1698.6811	-82.47105999999992	481.18939	1757.77453	-10.761129999999921	289.52999	1646.35975	198.15318000000008	296.67316	1650.25602	-193.8858299999999	362.72421	1395.51416	183.86685000000006	345.65484	1390.04083	129.41184000000007	391.2041	1415.45935	-189.80402999999995	372.09382	1404.88376	-136.74053999999995	464.95493	1180.19884	186.83544000000006	506.79345	1206.45228	193.60753000000005	330.81191	1385.21687	154.92313000000004	495.38294	1200.14403	-199.17362999999995	536.85039	1227.13962	-204.92526999999995	358.3641	1402.28625	-161.78798999999995	516.25582	1122.5897	352.798	489.63131	1118.04405	270.88356	493.80588	1160.16088	211.97566000000003	614.59026	1152.09003	-339.34659	555.5896	1142.99873	-277.00627	533.32519	1181.7759	-219.86096999999995	30.706320000000012	1223.9855	146.2029100000001	303.53801	992.71402	90.91297000000004	302.79587	1000.04272	20.87288000000004	326.7301	1028.05876	56.58869000000004	15.121239999999991	1216.00742	-145.4607599999999	297.97191	995.77538	-96.29353999999995	304.92954	1010.98938	-27.923269999999956	324.03982	1035.01638	-69.01964999999996	328.67823	950.41166	50.46598000000004	88.12992	662.73703	88.40823000000005	83.58428	664.96347	28.943720000000035	350.7571	976.75787	-63.36077999999996	290.45768	605.96281	-94.06709999999997	292.59135	605.49896	-34.41704999999999	-4.8239499999999955	647.15195	71.33885000000004	82.47106	516.16305	17.440450000000027	93.60326	514.49322	95.08755000000002	100.56088	497.14554	52.97072000000002	19.666890000000002	616.90947	67.16428000000005	146.48121	431.18725	44.99265000000002	239.15678	529.24339	-72.91591999999999	391.4824	501.96949	-11.596039999999993	403.17121	502.71164	-89.15038	418.84906	498.53707	-46.10587	277.65565	525.43989	-67.16427999999999	497.51661	484.80735	-34.32429	
847	14.1	0.0	1249.96063	7.653801422948546E-14	65.95829000000002	1344.76988	121.34099000000009	55.660999999999994	1342.17236	-128.3913799999999	22.542710000000007	1406.27529	101.48857000000008	13.915249999999993	1404.04885	-106.21974999999992	-48.88892	1196.7116	54.64055000000007	-53.24903	1195.59838	-49.25998999999993	-62.61863	1268.7926	2.4119800000000815	-27.8305	1370.28117	-0.7421499999999144	32.46892	1474.92386	-1.4842899999999117	96.29354	1565.28022	-1.20598999999991	357.90026	1575.39197	5.566100000000074	252.97927	1689.5898	2.4119800000000877	174.21894	1641.90687	0.09277000000008988	252.97927	1505.90848	2.504750000000077	306.59937	1720.01782	3.8962700000000865	590.93433	1709.34946	-19.759659999999933	494.73356	1702.29906	65.67999000000007	477.29312	1699.14494	-79.59523999999993	481.18939	1758.05284	-7.699769999999922	288.324	1645.61761	199.2664000000001	298.06468	1650.99817	-192.7726099999999	361.8893	1394.95755	184.05239000000006	345.00546	1389.76252	129.50460000000007	391.29686	1415.64489	-189.52571999999995	371.90828	1404.79099	-136.64776999999995	464.21278	1179.64223	186.64990000000006	506.0513	1205.98844	193.32922000000005	330.06976	1384.75303	155.10867000000005	494.45526	1199.77296	-199.35916999999995	536.10824	1226.67578	-204.92526999999995	358.27133	1402.37902	-161.69521999999995	515.69921	1122.03309	352.5197	488.98193	1117.48744	270.60525	493.06373	1159.69703	211.69735000000003	613.47704	1151.99726	-339.81043	554.56914	1142.72043	-277.37734	532.39751	1181.40483	-220.13926999999995	31.17016000000001	1225.74809	146.2956700000001	312.72208	1005.14498	91.28405000000004	311.60886	1012.28814	21.243950000000044	334.52264	1041.32463	56.866990000000044	13.35863999999999	1213.87375	-145.3679899999999	283.77836	978.4277	-96.57183999999995	292.12751	993.73447	-28.294339999999956	312.16547	1016.46272	-69.76178999999996	336.56354	962.47154	50.74428000000004	91.28405	678.78595	87.66608000000004	86.7384	681.19793	28.20158000000004	338.23337	960.05956	-63.82461999999997	283.68559	588.42959	-94.80923999999997	286.0048	587.87298	-35.15919999999998	-1.6698299999999955	663.29364	71.15332000000004	85.34687	532.21197	16.883840000000028	96.94292	530.63491	94.43817000000003	103.62224	513.28723	52.32134000000002	22.913780000000003	633.05116	66.88597000000004	149.4498	447.32894	44.15773000000002	232.19916	511.80294	-73.75082999999998	384.1537	484.0652	-11.781579999999993	396.21359	484.71458	-89.24314	411.7059	480.44724	-46.10587	270.69802	507.90667	-67.81365999999998	490.28068	466.43922	-34.04598	
848	14.117	0.0	1249.96063	7.653801422948546E-14	65.40168000000001	1345.69756	120.96992000000009	56.40314999999999	1341.15191	-128.76245999999992	22.171630000000007	1407.01743	100.37535000000008	14.657399999999994	1403.3067	-107.33296999999992	-49.25999	1197.17544	54.73332000000007	-52.97072	1195.32008	-49.07444999999993	-62.61863	1268.7926	1.9481400000000815	-27.73773	1370.28117	-1.6698299999999142	32.46892	1474.92386	-2.226439999999912	96.38631	1565.18745	-1.57705999999991	357.90026	1575.57751	6.864860000000075	252.8865	1689.68257	3.432430000000088	174.12618	1641.99964	0.46384000000008985	253.07204	1506.00125	2.7830500000000766	306.5066	1720.11058	5.473330000000087	591.0271	1709.72053	-16.04891999999993	494.17695	1702.39183	68.64857000000008	477.84973	1699.60878	-76.81218999999993	481.09662	1758.33114	-4.638419999999922	287.21078	1644.87546	200.1013100000001	299.27067	1651.83309	-191.75215999999992	361.05438	1394.40094	184.05239000000006	344.35608	1389.48422	129.41184000000007	391.29686	1415.83042	-189.61848999999995	371.53721	1404.79099	-136.92606999999995	463.47063	1179.27115	186.27883000000006	505.30916	1205.5246	193.05092000000005	329.32761	1384.38196	155.10867000000005	493.52758	1199.40188	-199.73023999999995	535.27333	1226.21194	-205.29633999999993	358.0858	1402.56455	-161.88075999999995	515.1426	1121.38371	352.05586	488.42532	1116.93083	270.14141	492.41436	1159.23319	211.32628000000003	612.45659	1151.90449	-340.36704	553.54869	1142.53489	-277.93395	531.46983	1181.03375	-220.60311999999993	31.72677000000001	1227.88177	146.2956700000001	321.62784	1018.22531	91.74789000000004	320.14355	1024.90463	21.615020000000044	341.94411	1055.05435	57.05253000000004	11.317739999999992	1211.83284	-145.2752199999999	268.28604	961.72939	-96.85014999999996	278.02672	976.9434	-28.758189999999956	299.08513	998.18735	-70.50393999999996	344.44885	975.27357	51.02259000000004	95.8297	694.1855	86.55286000000004	91.65512	696.78301	27.088360000000037	324.13258	943.8251	-64.38122999999996	274.8726	571.54575	-95.92245999999999	277.1918	570.98914	-36.272419999999975	3.2468900000000045	678.13657	70.68948000000005	90.91297	547.51875	16.234460000000023	102.97286	546.21999	93.69602000000003	109.55941	528.77955	51.67197000000003	28.016040000000004	648.07963	66.32936000000004	155.94358	463.19233	43.32282000000002	222.82956	495.29017	-74.86404999999999	374.32026	466.43922	-12.245419999999994	386.65845	466.81029	-89.70699	401.96522	462.63572	-46.56970999999999	261.32842	491.02283	-68.74133999999998	480.44724	447.97832	-34.13875	
849	14.133	0.0	1249.96063	7.653801422948546E-14	64.84507000000002	1346.53247	120.59884000000008	57.14529999999999	1340.13146	-129.13352999999992	21.800560000000008	1407.75958	99.35489000000008	15.306779999999993	1402.47178	-108.35341999999991	-49.53829	1197.63929	54.91886000000007	-52.78519	1194.949	-48.981679999999926	-62.61863	1268.88537	1.4842900000000816	-27.64497	1370.28117	-2.5975099999999145	32.65446	1474.92386	-3.061359999999912	96.47907	1565.18745	-2.04089999999991	357.90026	1575.76305	8.070850000000075	252.79373	1689.77534	4.452880000000088	174.12618	1641.99964	0.7421500000000899	253.1648	1506.09402	2.9685900000000767	306.41383	1720.29612	6.957630000000087	591.0271	1710.18437	-12.338189999999932	493.52758	1702.57737	71.43162000000007	478.40634	1700.16539	-74.12189999999993	481.00385	1758.70221	-1.7625999999999218	286.0048	1644.22608	200.93623000000008	300.38389	1652.76077	-190.9172499999999	360.1267	1393.9371	184.05239000000006	343.79947	1389.20591	129.31907000000007	391.2041	1416.01596	-189.89678999999995	370.9806	1404.60546	-137.38990999999993	462.82125	1178.80731	185.81499000000005	504.65978	1205.15352	192.58708000000004	328.58546	1383.91812	155.01590000000004	492.50712	1199.12358	-200.19407999999996	534.34565	1225.74809	-205.66740999999993	357.71472	1402.75009	-162.34459999999996	514.67876	1120.8271	351.49925	487.86871	1116.46699	269.5848	491.76498	1158.76935	210.86244000000002	611.43614	1151.71896	-340.92365	552.52824	1142.34935	-278.58333	530.44938	1180.66268	-221.06695999999994	32.37615000000001	1230.10821	146.3884400000001	330.2553	1031.86226	92.02619000000004	328.21439	1038.07774	21.800560000000043	348.90173	1069.2479	57.05253000000004	9.276829999999991	1210.07024	-145.1824499999999	251.77328	945.77324	-97.22121999999996	262.90548	960.70894	-29.31479999999996	284.79881	980.4686	-71.33884999999995	352.33416	988.63221	51.300890000000045	101.85964	709.02843	85.34687000000004	97.96337	711.62595	25.882370000000037	308.91858	928.14725	-64.93783999999995	264.0187	555.31129	-97.40675999999999	266.43068	554.66191	-37.84947999999998	9.740680000000003	691.68075	69.94733000000004	99.07659	562.26892	15.399540000000028	111.50755	561.34123	92.86111000000002	118.0941	543.90079	50.837050000000026	34.880900000000004	661.99488	65.58722000000004	165.40595	478.96295	42.487900000000025	211.23351	479.70509	-76.44110999999998	362.1676	449.18431	-13.358639999999994	374.7841	449.27708	-90.82021	389.81257	444.91696	-47.59015999999999	249.63961	474.97391	-70.22562999999998	468.10905	429.42465	-34.8809	
